<?xml version="1.0" standalone="no"?>
<!DOCTYPE svg PUBLIC "-//W3C//DTD SVG 20010904//EN"
 "http://www.w3.org/TR/2001/REC-SVG-20010904/DTD/svg10.dtd">
<svg version="1.0" xmlns="http://www.w3.org/2000/svg"
 width="700.000000pt" height="700.000000pt" viewBox="0 0 700.000000 700.000000"
 preserveAspectRatio="xMidYMid meet">
<metadata>
Created by potrace 1.11, written by Peter Selinger 2001-2013
</metadata>
<g transform="translate(0.000000,700.000000) scale(0.100000,-0.100000)"
fill="#000000" stroke="none">
<path d="M1487 6935 c-2 -5 -3 -1553 -3 -3440 l1 -3430 2013 -3 2012 -2 1 22
c1 19 0 666 -1 759 l0 25 -1607 -1 c-885 0 -1612 1 -1618 2 -7 2 -10 378 -9
1106 1 606 2 1107 3 1114 1 9 368 12 1544 12 848 0 1576 0 1617 1 l75 0 -2
377 c-1 208 -2 389 -3 403 l0 25 -1611 0 c-886 0 -1614 2 -1618 5 -3 3 -6 505
-6 1116 l0 1111 1613 -1 c888 -1 1616 3 1619 8 4 6 6 560 3 776 l0 25 -2010 0
c-1331 0 -2011 -3 -2013 -10z"/>
</g>
</svg>
